<svg class="animated" id="freepik_stories-gps-navigator" xmlns="http://www.w3.org/2000/svg" viewBox="0 0 750 500" version="1.1" xmlns:xlink="http://www.w3.org/1999/xlink" xmlns:svgjs="http://svgjs.com/svgjs"><style>svg#freepik_stories-gps-navigator:not(.animated) .animable {opacity: 0;}svg#freepik_stories-gps-navigator.animated #freepik--background-complete--inject-99 {animation: 1s 1 forwards cubic-bezier(.36,-0.01,.5,1.38) lightSpeedLeft;animation-delay: 0s;}svg#freepik_stories-gps-navigator.animated #freepik--Floor--inject-99 {animation: 1s 1 forwards cubic-bezier(.36,-0.01,.5,1.38) zoomOut;animation-delay: 0s;}svg#freepik_stories-gps-navigator.animated #freepik--Device--inject-99 {animation: 1s 1 forwards cubic-bezier(.36,-0.01,.5,1.38) zoomIn;animation-delay: 0s;}svg#freepik_stories-gps-navigator.animated #freepik--Car--inject-99 {animation: 1s 1 forwards cubic-bezier(.36,-0.01,.5,1.38) slideRight;animation-delay: 0s;}            @keyframes lightSpeedLeft {              from {                transform: translate3d(-50%, 0, 0) skewX(20deg);                opacity: 0;              }              60% {                transform: skewX(-10deg);                opacity: 1;              }              80% {                transform: skewX(2deg);              }              to {                opacity: 1;                transform: translate3d(0, 0, 0);              }            }                    @keyframes zoomOut {                0% {                    opacity: 0;                    transform: scale(1.5);                }                100% {                    opacity: 1;                    transform: scale(1);                }            }                    @keyframes zoomIn {                0% {                    opacity: 0;                    transform: scale(0.5);                }                100% {                    opacity: 1;                    transform: scale(1);                }            }                    @keyframes slideRight {                0% {                    opacity: 0;                    transform: translateX(30px);                }                100% {                    opacity: 1;                    transform: translateX(0);                }            }        </style><g id="freepik--background-complete--inject-99" style="transform-origin: 387.67039489746094px 248.29701232910156px;" class="animable"><g id="eldiqjhr32sh9"><rect x="507.04" y="65.72" width="83.16" height="351.69" style="fill: rgb(235, 235, 235); transform-origin: 548.62px 241.565px; transform: rotate(180deg);" class="animable"></rect></g><g id="el0ec7y2ueea88"><rect x="549.43" y="90.37" width="25.28" height="48.71" style="fill: rgb(255, 255, 255); transform-origin: 562.0699999999999px 114.72500000000001px; transform: rotate(180deg);" class="animable"></rect></g><path d="M561.36,139.08c.18,0,.33-10.91.33-24.36s-.15-24.35-.33-24.35-.34,10.9-.34,24.35S561.17,139.08,561.36,139.08Z" style="fill: rgb(224, 224, 224); transform-origin: 561.35498046875px 114.72500228881836px;" id="elppwyfqqlbah" class="animable"></path><path d="M549.43,107.29c0,.19,5.66.34,12.64.34s12.64-.15,12.64-.34-5.66-.34-12.64-.34S549.43,107.1,549.43,107.29Z" style="fill: rgb(224, 224, 224); transform-origin: 562.0700073242188px 107.29000091552734px;" id="elrwvvbq3ytn" class="animable"></path><path d="M549.3,124.71c0,.19,5.7.34,12.74.34s12.74-.15,12.74-.34-5.7-.34-12.74-.34S549.3,124.52,549.3,124.71Z" style="fill: rgb(224, 224, 224); transform-origin: 562.0399780273438px 124.70999908447266px;" id="el2a9vgspgwer" class="animable"></path><g id="el7sn9zgv8o83"><rect x="549.43" y="153.99" width="25.28" height="48.71" style="fill: rgb(255, 255, 255); transform-origin: 562.0699999999999px 178.345px; transform: rotate(180deg);" class="animable"></rect></g><path d="M561.36,202.7c.18,0,.33-10.9.33-24.35s-.15-24.36-.33-24.36-.34,10.9-.34,24.36S561.17,202.7,561.36,202.7Z" style="fill: rgb(224, 224, 224); transform-origin: 561.35498046875px 178.3449935913086px;" id="eli4hz1yl7m5" class="animable"></path><path d="M549.43,170.91c0,.19,5.66.34,12.64.34s12.64-.15,12.64-.34-5.66-.33-12.64-.33S549.43,170.73,549.43,170.91Z" style="fill: rgb(224, 224, 224); transform-origin: 562.0700073242188px 170.91500091552734px;" id="elagalg8mbgb" class="animable"></path><path d="M549.3,188.33c0,.19,5.7.34,12.74.34s12.74-.15,12.74-.34S569.08,188,562,188,549.3,188.15,549.3,188.33Z" style="fill: rgb(224, 224, 224); transform-origin: 562.0399780273438px 188.33499908447266px;" id="elx35izv7oeks" class="animable"></path><g id="elnq3wh90ogx"><rect x="549.43" y="217.62" width="25.28" height="48.71" style="fill: rgb(255, 255, 255); transform-origin: 562.0699999999999px 241.975px; transform: rotate(180deg);" class="animable"></rect></g><path d="M561.36,266.32c.18,0,.33-10.9.33-24.35s-.15-24.35-.33-24.35S561,228.52,561,242,561.17,266.32,561.36,266.32Z" style="fill: rgb(224, 224, 224); transform-origin: 561.3450012207031px 241.97000122070312px;" id="el14zgsehlo0ci" class="animable"></path><path d="M549.43,234.54c0,.18,5.66.34,12.64.34s12.64-.16,12.64-.34-5.66-.34-12.64-.34S549.43,234.35,549.43,234.54Z" style="fill: rgb(224, 224, 224); transform-origin: 562.0700073242188px 234.5399932861328px;" id="elexskujb1lmr" class="animable"></path><path d="M549.3,252c0,.18,5.7.34,12.74.34s12.74-.16,12.74-.34-5.7-.34-12.74-.34S549.3,251.77,549.3,252Z" style="fill: rgb(224, 224, 224); transform-origin: 562.0399780273438px 252px;" id="els6640y3ie58" class="animable"></path><g id="el8b6127zobur"><rect x="549.43" y="281.24" width="25.28" height="48.71" style="fill: rgb(255, 255, 255); transform-origin: 562.0699999999999px 305.595px; transform: rotate(180deg);" class="animable"></rect></g><path d="M561.36,330c.18,0,.33-10.91.33-24.36s-.15-24.35-.33-24.35-.34,10.9-.34,24.35S561.17,330,561.36,330Z" style="fill: rgb(224, 224, 224); transform-origin: 561.35498046875px 305.64500427246094px;" id="elnaf1i59o2q" class="animable"></path><path d="M549.43,298.16c0,.19,5.66.34,12.64.34s12.64-.15,12.64-.34-5.66-.34-12.64-.34S549.43,298,549.43,298.16Z" style="fill: rgb(224, 224, 224); transform-origin: 562.0700073242188px 298.1600036621094px;" id="ellgfpssgs1y" class="animable"></path><path d="M549.3,315.58c0,.19,5.7.34,12.74.34s12.74-.15,12.74-.34-5.7-.34-12.74-.34S549.3,315.39,549.3,315.58Z" style="fill: rgb(224, 224, 224); transform-origin: 562.0399780273438px 315.5799865722656px;" id="el6mq3a7bviku" class="animable"></path><g id="el1k5y1ri21dt"><rect x="471.68" y="65.72" width="60.59" height="351.69" style="fill: rgb(224, 224, 224); transform-origin: 501.975px 241.565px; transform: rotate(180deg);" class="animable"></rect></g><g id="elg407hvksmeg"><rect x="488.18" y="90.37" width="25.28" height="48.71" style="fill: rgb(255, 255, 255); transform-origin: 500.82px 114.72500000000001px; transform: rotate(180deg);" class="animable"></rect></g><path d="M500.1,139.08c.19,0,.34-10.91.34-24.36s-.15-24.35-.34-24.35-.33,10.9-.33,24.35S499.92,139.08,500.1,139.08Z" style="fill: rgb(224, 224, 224); transform-origin: 500.1050109863281px 114.72500228881836px;" id="eln95l2vzzful" class="animable"></path><path d="M488.18,107.29c0,.19,5.66.34,12.63.34s12.64-.15,12.64-.34-5.65-.34-12.64-.34S488.18,107.1,488.18,107.29Z" style="fill: rgb(224, 224, 224); transform-origin: 500.81500244140625px 107.29000091552734px;" id="elks0pt0alhb9" class="animable"></path><path d="M488,124.71c0,.19,5.71.34,12.75.34s12.74-.15,12.74-.34-5.71-.34-12.74-.34S488,124.52,488,124.71Z" style="fill: rgb(224, 224, 224); transform-origin: 500.7449951171875px 124.70999908447266px;" id="elt1ddttbb89i" class="animable"></path><g id="elmeg9zv5q6x"><rect x="488.18" y="154.51" width="25.28" height="48.71" style="fill: rgb(255, 255, 255); transform-origin: 500.82px 178.86499999999998px; transform: rotate(180deg);" class="animable"></rect></g><path d="M500.1,203.22c.19,0,.34-10.9.34-24.35s-.15-24.36-.34-24.36-.33,10.91-.33,24.36S499.92,203.22,500.1,203.22Z" style="fill: rgb(224, 224, 224); transform-origin: 500.1050109863281px 178.86499786376953px;" id="el6aejbo5xe58" class="animable"></path><path d="M488.18,171.44c0,.18,5.66.33,12.63.33s12.64-.15,12.64-.33-5.65-.34-12.64-.34S488.18,171.25,488.18,171.44Z" style="fill: rgb(224, 224, 224); transform-origin: 500.81500244140625px 171.43500518798828px;" id="elj2phi9yvto" class="animable"></path><path d="M488,188.86c0,.18,5.71.33,12.75.33s12.74-.15,12.74-.33-5.71-.34-12.74-.34S488,188.67,488,188.86Z" style="fill: rgb(224, 224, 224); transform-origin: 500.7449951171875px 188.8550033569336px;" id="elfhr8ln1n0pt" class="animable"></path><g id="eljg40cuu9f2o"><rect x="488.18" y="218.66" width="25.28" height="48.71" style="fill: rgb(255, 255, 255); transform-origin: 500.82px 243.015px; transform: rotate(180deg);" class="animable"></rect></g><path d="M500.1,267.37c.19,0,.34-10.91.34-24.36s-.15-24.35-.34-24.35-.33,10.9-.33,24.35S499.92,267.37,500.1,267.37Z" style="fill: rgb(224, 224, 224); transform-origin: 500.1050109863281px 243.0149917602539px;" id="elsivimisoa1f" class="animable"></path><path d="M488.18,235.58c0,.19,5.66.34,12.63.34s12.64-.15,12.64-.34-5.65-.34-12.64-.34S488.18,235.4,488.18,235.58Z" style="fill: rgb(224, 224, 224); transform-origin: 500.81500244140625px 235.5800018310547px;" id="el0dw8z7matvsm" class="animable"></path><path d="M488,253c0,.19,5.71.34,12.75.34s12.74-.15,12.74-.34-5.71-.34-12.74-.34S488,252.81,488,253Z" style="fill: rgb(224, 224, 224); transform-origin: 500.7449951171875px 253px;" id="el5r4k9nj1hai" class="animable"></path><g id="elibgnkyvq8eb"><rect x="488.18" y="282.81" width="25.28" height="48.71" style="fill: rgb(255, 255, 255); transform-origin: 500.82px 307.165px; transform: rotate(180deg);" class="animable"></rect></g><path d="M500.1,331.51c.19,0,.34-10.9.34-24.35s-.15-24.35-.34-24.35-.33,10.9-.33,24.35S499.92,331.51,500.1,331.51Z" style="fill: rgb(224, 224, 224); transform-origin: 500.1050109863281px 307.1600036621094px;" id="elt4hla1lgmfl" class="animable"></path><path d="M488.18,299.73c0,.18,5.66.34,12.63.34s12.64-.16,12.64-.34-5.65-.34-12.64-.34S488.18,299.54,488.18,299.73Z" style="fill: rgb(224, 224, 224); transform-origin: 500.81500244140625px 299.7300109863281px;" id="el5zynrarctxd" class="animable"></path><path d="M488,317.15c0,.18,5.71.34,12.75.34s12.74-.16,12.74-.34-5.71-.34-12.74-.34S488,317,488,317.15Z" style="fill: rgb(224, 224, 224); transform-origin: 500.7449951171875px 317.1499938964844px;" id="elf5w0z28zyin" class="animable"></path><g id="elddmptz4bti"><rect x="549.43" y="344.86" width="25.28" height="48.71" style="fill: rgb(255, 255, 255); transform-origin: 562.0699999999999px 369.21500000000003px; transform: rotate(180deg);" class="animable"></rect></g><path d="M561.36,393.57c.18,0,.33-10.9.33-24.35s-.15-24.36-.33-24.36-.34,10.91-.34,24.36S561.17,393.57,561.36,393.57Z" style="fill: rgb(224, 224, 224); transform-origin: 561.35498046875px 369.2149963378906px;" id="el8i7mpi6iryw" class="animable"></path><path d="M549.43,361.79c0,.18,5.66.33,12.64.33s12.64-.15,12.64-.33-5.66-.34-12.64-.34S549.43,361.6,549.43,361.79Z" style="fill: rgb(224, 224, 224); transform-origin: 562.0700073242188px 361.7850036621094px;" id="ellxh6qhkr53" class="animable"></path><path d="M549.3,379.21c0,.18,5.7.33,12.74.33s12.74-.15,12.74-.33-5.7-.34-12.74-.34S549.3,379,549.3,379.21Z" style="fill: rgb(224, 224, 224); transform-origin: 562.0399780273438px 379.2049865722656px;" id="elw6o0n2d2oje" class="animable"></path><g id="elc4fkp17enjl"><rect x="488.18" y="346.95" width="25.28" height="48.71" style="fill: rgb(255, 255, 255); transform-origin: 500.82px 371.305px; transform: rotate(180deg);" class="animable"></rect></g><path d="M500.1,395.66c.19,0,.34-10.9.34-24.35S500.29,347,500.1,347s-.33,10.9-.33,24.36S499.92,395.66,500.1,395.66Z" style="fill: rgb(224, 224, 224); transform-origin: 500.1050109863281px 371.3300018310547px;" id="el51m2ktj7u3c" class="animable"></path><path d="M488.18,363.87c0,.19,5.66.34,12.63.34s12.64-.15,12.64-.34-5.65-.33-12.64-.33S488.18,363.69,488.18,363.87Z" style="fill: rgb(224, 224, 224); transform-origin: 500.81500244140625px 363.875px;" id="el1syhinb7dty" class="animable"></path><path d="M488,381.29c0,.19,5.71.34,12.75.34s12.74-.15,12.74-.34-5.71-.33-12.74-.33S488,381.11,488,381.29Z" style="fill: rgb(224, 224, 224); transform-origin: 500.7449951171875px 381.2950134277344px;" id="el6g7zme65era" class="animable"></path><g id="el4mifah4nglg"><rect x="614.25" y="178.35" width="56.53" height="239.06" style="fill: rgb(235, 235, 235); transform-origin: 642.515px 297.88px; transform: rotate(180deg);" class="animable"></rect></g><g id="elvgz0phmmya"><rect x="643.06" y="195.1" width="17.18" height="33.11" style="fill: rgb(255, 255, 255); transform-origin: 651.65px 211.655px; transform: rotate(180deg);" class="animable"></rect></g><path d="M651.17,228.21c.12,0,.23-7.41.23-16.55s-.11-16.56-.23-16.56-.23,7.41-.23,16.56S651,228.21,651.17,228.21Z" style="fill: rgb(224, 224, 224); transform-origin: 651.1699829101562px 211.6550064086914px;" id="el9dgc3ufy8e" class="animable"></path><path d="M643.06,206.61a160.52,160.52,0,0,0,17.18,0,160.52,160.52,0,0,0-17.18,0Z" style="fill: rgb(224, 224, 224); transform-origin: 651.6499938964844px 206.60999584197998px;" id="eldhe0mdmampl" class="animable"></path><path d="M643,218.45a163.15,163.15,0,0,0,17.32,0,163.15,163.15,0,0,0-17.32,0Z" style="fill: rgb(224, 224, 224); transform-origin: 651.6600036621094px 218.45000076293945px;" id="elbj5ak7c3yg" class="animable"></path><g id="elq852m1gugyp"><rect x="643.06" y="238.35" width="17.18" height="33.11" style="fill: rgb(255, 255, 255); transform-origin: 651.65px 254.905px; transform: rotate(180deg);" class="animable"></rect></g><path d="M651.17,271.46c.12,0,.23-7.41.23-16.55s-.11-16.56-.23-16.56-.23,7.41-.23,16.56S651,271.46,651.17,271.46Z" style="fill: rgb(224, 224, 224); transform-origin: 651.1699829101562px 254.90499114990234px;" id="eljvyk8fko11" class="animable"></path><path d="M643.06,249.85a160.52,160.52,0,0,0,17.18,0,160.52,160.52,0,0,0-17.18,0Z" style="fill: rgb(224, 224, 224); transform-origin: 651.6499938964844px 249.8500051498413px;" id="el90g66vevv3j" class="animable"></path><path d="M643,261.69a163.15,163.15,0,0,0,17.32,0,163.15,163.15,0,0,0-17.32,0Z" style="fill: rgb(224, 224, 224); transform-origin: 651.6600036621094px 261.6899948120117px;" id="el67rp8wp7n76" class="animable"></path><g id="el9161w97ryue"><rect x="643.06" y="281.6" width="17.18" height="33.11" style="fill: rgb(255, 255, 255); transform-origin: 651.65px 298.15500000000003px; transform: rotate(180deg);" class="animable"></rect></g><path d="M651.17,314.71c.12,0,.23-7.41.23-16.56s-.11-16.55-.23-16.55-.23,7.41-.23,16.55S651,314.71,651.17,314.71Z" style="fill: rgb(224, 224, 224); transform-origin: 651.1699829101562px 298.1549987792969px;" id="eld8dxmx49gr5" class="animable"></path><path d="M643.06,293.1a160.52,160.52,0,0,0,17.18,0,160.52,160.52,0,0,0-17.18,0Z" style="fill: rgb(224, 224, 224); transform-origin: 651.6499938964844px 293.0999984741211px;" id="elschmmygwexc" class="animable"></path><path d="M643,304.94a163.15,163.15,0,0,0,17.32,0,163.15,163.15,0,0,0-17.32,0Z" style="fill: rgb(224, 224, 224); transform-origin: 651.6600036621094px 304.9399948120117px;" id="elr5lodqknqcn" class="animable"></path><g id="el9hjqwl4jc66"><rect x="643.06" y="324.85" width="17.18" height="33.11" style="fill: rgb(255, 255, 255); transform-origin: 651.65px 341.40500000000003px; transform: rotate(180deg);" class="animable"></rect></g><path d="M651.17,358c.12,0,.23-7.42.23-16.56s-.11-16.55-.23-16.55-.23,7.41-.23,16.55S651,358,651.17,358Z" style="fill: rgb(224, 224, 224); transform-origin: 651.1699829101562px 341.44500732421875px;" id="eljv5upgsl6no" class="animable"></path><path d="M643.06,336.35a160.52,160.52,0,0,0,17.18,0,160.52,160.52,0,0,0-17.18,0Z" style="fill: rgb(224, 224, 224); transform-origin: 651.6499938964844px 336.3499870300293px;" id="eltbdhdfeuf3r" class="animable"></path><path d="M643,348.19a163.15,163.15,0,0,0,17.32,0,163.15,163.15,0,0,0-17.32,0Z" style="fill: rgb(224, 224, 224); transform-origin: 651.6600036621094px 348.189977645874px;" id="elfp31w08sc1" class="animable"></path><g id="el4m89j5he34s"><rect x="590.21" y="178.35" width="41.19" height="239.06" style="fill: rgb(224, 224, 224); transform-origin: 610.8050000000001px 297.88px; transform: rotate(180deg);" class="animable"></rect></g><g id="eljuv5k0x6wl"><rect x="601.42" y="195.1" width="17.18" height="33.11" style="fill: rgb(255, 255, 255); transform-origin: 610.01px 211.655px; transform: rotate(180deg);" class="animable"></rect></g><path d="M609.53,228.21c.13,0,.23-7.41.23-16.55s-.1-16.56-.23-16.56-.23,7.41-.23,16.56S609.4,228.21,609.53,228.21Z" style="fill: rgb(224, 224, 224); transform-origin: 609.530029296875px 211.6550064086914px;" id="elo7pbkxe1mr" class="animable"></path><path d="M601.42,206.61a160.52,160.52,0,0,0,17.18,0,160.52,160.52,0,0,0-17.18,0Z" style="fill: rgb(224, 224, 224); transform-origin: 610.0099792480469px 206.60999584197998px;" id="elprevygbv66" class="animable"></path><path d="M601.33,218.45a163.34,163.34,0,0,0,17.33,0,163.34,163.34,0,0,0-17.33,0Z" style="fill: rgb(224, 224, 224); transform-origin: 609.9950256347656px 218.45000743865967px;" id="elend23fdnyl" class="animable"></path><g id="elz0w0clh6fbc"><rect x="601.42" y="238.71" width="17.18" height="33.11" style="fill: rgb(255, 255, 255); transform-origin: 610.01px 255.26500000000001px; transform: rotate(180deg);" class="animable"></rect></g><path d="M609.53,271.81c.13,0,.23-7.41.23-16.55s-.1-16.55-.23-16.55-.23,7.41-.23,16.55S609.4,271.81,609.53,271.81Z" style="fill: rgb(224, 224, 224); transform-origin: 609.530029296875px 255.25999450683594px;" id="elbr5h9fpkik7" class="animable"></path><path d="M601.42,250.21a160.52,160.52,0,0,0,17.18,0,160.52,160.52,0,0,0-17.18,0Z" style="fill: rgb(224, 224, 224); transform-origin: 610.0099792480469px 250.21001434326172px;" id="elroduyaoioz" class="animable"></path><path d="M601.33,262.05a163.34,163.34,0,0,0,17.33,0,163.34,163.34,0,0,0-17.33,0Z" style="fill: rgb(224, 224, 224); transform-origin: 609.9950256347656px 262.0499973297119px;" id="elrphj0bpbyt" class="animable"></path><g id="eljm5fe86j4td"><rect x="601.42" y="282.31" width="17.18" height="33.11" style="fill: rgb(255, 255, 255); transform-origin: 610.01px 298.865px; transform: rotate(180deg);" class="animable"></rect></g><path d="M609.53,315.42c.13,0,.23-7.41.23-16.56s-.1-16.55-.23-16.55-.23,7.41-.23,16.55S609.4,315.42,609.53,315.42Z" style="fill: rgb(224, 224, 224); transform-origin: 609.530029296875px 298.8650207519531px;" id="elj186bazawws" class="animable"></path><path d="M601.42,293.81a160.52,160.52,0,0,0,17.18,0,160.52,160.52,0,0,0-17.18,0Z" style="fill: rgb(224, 224, 224); transform-origin: 610.0099792480469px 293.8099899291992px;" id="elxwvqkjecrqg" class="animable"></path><path d="M601.33,305.65a163.34,163.34,0,0,0,17.33,0,163.34,163.34,0,0,0-17.33,0Z" style="fill: rgb(224, 224, 224); transform-origin: 609.9950256347656px 305.64998626708984px;" id="elwlsu3i61itg" class="animable"></path><g id="elui8t5p6ipap"><rect x="601.42" y="325.91" width="17.18" height="33.11" style="fill: rgb(255, 255, 255); transform-origin: 610.01px 342.46500000000003px; transform: rotate(180deg);" class="animable"></rect></g><path d="M609.53,359c.13,0,.23-7.41.23-16.55s-.1-16.56-.23-16.56-.23,7.41-.23,16.56S609.4,359,609.53,359Z" style="fill: rgb(224, 224, 224); transform-origin: 609.530029296875px 342.44500732421875px;" id="elj6sgwkqoo1e" class="animable"></path><path d="M601.42,337.41a160.52,160.52,0,0,0,17.18,0,160.52,160.52,0,0,0-17.18,0Z" style="fill: rgb(224, 224, 224); transform-origin: 610.0099792480469px 337.4099864959717px;" id="eli5cmpn69m6m" class="animable"></path><path d="M601.33,349.25a163.34,163.34,0,0,0,17.33,0,163.34,163.34,0,0,0-17.33,0Z" style="fill: rgb(224, 224, 224); transform-origin: 609.9950256347656px 349.24999237060547px;" id="elr9t5in9gli" class="animable"></path><g id="el2pg78gv58s3"><rect x="643.06" y="368.09" width="17.18" height="33.11" style="fill: rgb(255, 255, 255); transform-origin: 651.65px 384.645px; transform: rotate(180deg);" class="animable"></rect></g><path d="M651.17,401.2c.12,0,.23-7.41.23-16.55s-.11-16.56-.23-16.56-.23,7.42-.23,16.56S651,401.2,651.17,401.2Z" style="fill: rgb(224, 224, 224); transform-origin: 651.1699829101562px 384.64501953125px;" id="el2kirwk0kni6" class="animable"></path><path d="M643.06,379.6a160.52,160.52,0,0,0,17.18,0,160.52,160.52,0,0,0-17.18,0Z" style="fill: rgb(224, 224, 224); transform-origin: 651.6499938964844px 379.5999984741211px;" id="elt4le81z2okr" class="animable"></path><path d="M643,391.44a163.15,163.15,0,0,0,17.32,0,163.15,163.15,0,0,0-17.32,0Z" style="fill: rgb(224, 224, 224); transform-origin: 651.6600036621094px 391.4399948120117px;" id="el1tu50gz7vt6" class="animable"></path><g id="el72i89c8rvp"><rect x="601.42" y="369.51" width="17.18" height="33.11" style="fill: rgb(255, 255, 255); transform-origin: 610.01px 386.065px; transform: rotate(180deg);" class="animable"></rect></g><path d="M609.53,402.62c.13,0,.23-7.41.23-16.55s-.1-16.56-.23-16.56-.23,7.41-.23,16.56S609.4,402.62,609.53,402.62Z" style="fill: rgb(224, 224, 224); transform-origin: 609.530029296875px 386.06500244140625px;" id="elmjoragpekh" class="animable"></path><path d="M601.42,381a160.52,160.52,0,0,0,17.18,0,160.52,160.52,0,0,0-17.18,0Z" style="fill: rgb(224, 224, 224); transform-origin: 610.0099792480469px 380.9999809265137px;" id="elheoml5imw88" class="animable"></path><path d="M601.33,392.86a163.34,163.34,0,0,0,17.33,0,163.34,163.34,0,0,0-17.33,0Z" style="fill: rgb(224, 224, 224); transform-origin: 609.9950256347656px 392.8599967956543px;" id="elpg8hbqi3wy" class="animable"></path><polygon points="278.27 439 408.62 439 388.31 446.4 254.71 446.4 278.27 439" style="fill: rgb(224, 224, 224); transform-origin: 331.66500091552734px 442.6999969482422px;" id="elm5trzra8bnc" class="animable"></polygon><polygon points="95.09 439 225.43 439 205.13 446.4 71.53 446.4 95.09 439" style="fill: rgb(224, 224, 224); transform-origin: 148.47999572753906px 442.6999969482422px;" id="el2i7q72m33p6" class="animable"></polygon><polygon points="449.12 446.72 466.69 439.31 598.23 439.31 579.47 446.86 449.12 446.72" style="fill: rgb(224, 224, 224); transform-origin: 523.6749877929688px 443.0849914550781px;" id="eldkr6bir0t5" class="animable"></polygon><path d="M280.3,101.66c.51-3.72-4.74-6.78-8.69-7.1-1.88-.15-3.83.14-5.62-.48-3.86-1.35-5.4-6.34-9.17-7.93C254,85,250.76,86,248,87.4s-5.44,3.1-8.49,3.3c-2.65.17-5.53-.82-7.86.48-1.73,1-2.63,3-4.23,4.14a10.15,10.15,0,0,1-5.53,1.5,15.46,15.46,0,0,0-5.71.93c-1.76.8-3.22,2.67-2.85,4.57Z" style="fill: rgb(245, 245, 245); transform-origin: 246.80333709716797px 93.98405838012695px;" id="elcdrr9dpkg0d" class="animable"></path><path d="M415,65.76c.52-3.72-4.74-6.79-8.68-7.1-1.88-.15-3.84.13-5.62-.49-3.86-1.34-5.41-6.33-9.17-7.92-2.82-1.19-6.07-.13-8.8,1.24s-5.43,3.1-8.48,3.3c-2.66.17-5.54-.81-7.86.48-1.73,1-2.64,3-4.23,4.14a10.16,10.16,0,0,1-5.54,1.5,15.41,15.41,0,0,0-5.7.93c-1.76.81-3.22,2.67-2.86,4.58Z" style="fill: rgb(245, 245, 245); transform-origin: 381.52037811279297px 58.07701110839844px;" id="elhwghdz6a5v" class="animable"></path><path d="M713,137.53c.67-4.92-6.27-9-11.48-9.38-2.49-.2-5.07.18-7.43-.64C689,125.73,687,119.13,682,117c-3.72-1.57-8-.17-11.62,1.65s-7.18,4.1-11.21,4.36c-3.51.22-7.32-1.08-10.39.64-2.28,1.27-3.48,3.91-5.59,5.46s-4.75,1.85-7.31,2-5.21.17-7.54,1.24-4.25,3.53-3.77,6Z" style="fill: rgb(235, 235, 235); transform-origin: 668.7704696655273px 127.33497619628906px;" id="eliekymsnu69a" class="animable"></path><path d="M160.27,80.73c.75-5.44-6.93-9.91-12.7-10.38-2.76-.22-5.61.2-8.22-.71-5.65-2-7.91-9.27-13.42-11.59-4.12-1.74-8.86-.19-12.86,1.82s-7.94,4.54-12.4,4.83c-3.88.24-8.1-1.2-11.5.7-2.53,1.41-3.85,4.33-6.18,6s-5.26,2-8.1,2.19-5.76.19-8.34,1.37-4.71,3.9-4.17,6.69Z" style="fill: rgb(235, 235, 235); transform-origin: 111.30831909179688px 69.47288703918457px;" id="elv8dc3ow230m" class="animable"></path></g><g id="freepik--Floor--inject-99" style="transform-origin: 374.9999694824219px 417.3999938964844px;" class="animable"><path d="M726.49,417.4c0,.15-157.38.26-351.47.26s-351.51-.11-351.51-.26,157.35-.26,351.51-.26S726.49,417.26,726.49,417.4Z" style="fill: rgb(38, 50, 56); transform-origin: 374.9999694824219px 417.3999938964844px;" id="elj9iqoyk7lm" class="animable"></path></g><g id="freepik--Device--inject-99" style="transform-origin: 268.83000564575195px 272.3899917602539px;" class="animable"><rect x="57.31" y="127.38" width="423.04" height="290.02" rx="28.29" style="fill: rgb(69, 90, 100); transform-origin: 268.83000000000004px 272.39px;" id="el37o8so8akar" class="animable"></rect><rect x="68.4" y="140.62" width="399.87" height="264.04" rx="17.95" style="fill: rgb(38, 50, 56); transform-origin: 268.33500000000004px 272.64px;" id="elp3gtzali5ma" class="animable"></rect><rect x="90.89" y="157.14" width="354.89" height="222.06" style="fill: rgb(255, 255, 255); transform-origin: 268.335px 268.16999999999996px;" id="elyaaku0hygra" class="animable"></rect><path d="M445.78,281.91c-1.06-.88-354.89-.7-354.89-.7v15.84l354.89.7Z" style="fill: rgb(224, 224, 224); transform-origin: 268.3349914550781px 289.4724130630493px;" id="elz09wi1547t" class="animable"></path><polygon points="165.54 157.14 118.27 222.29 99.35 222.29 150.1 157.14 165.54 157.14" style="fill: rgb(224, 224, 224); transform-origin: 132.44499588012695px 189.71499633789062px;" id="el3f6f144e9ey" class="animable"></polygon><polygon points="209.09 157.14 161.2 255.95 267.01 255.95 445.79 229.34 445.79 242.33 269.06 271.69 268.55 266.81 90.89 266.81 90.89 254.32 139.22 254.32 191.2 157.14 209.09 157.14" style="fill: rgb(224, 224, 224); transform-origin: 268.3400115966797px 214.41500091552734px;" id="elhsz7bnyqrmd" class="animable"></polygon><polygon points="285.01 157.14 284.39 379.2 245.03 379.2 267.63 157.14 285.01 157.14" style="fill: rgb(224, 224, 224); transform-origin: 265.02000427246094px 268.17000579833984px;" id="elb6vk1q4no77" class="animable"></polygon><rect x="90.89" y="217.13" width="172.02" height="15.16" style="fill: rgb(224, 224, 224); transform-origin: 176.9px 224.71px;" id="elvst41p72ll" class="animable"></rect><polygon points="90.89 219.75 280.82 219.75 278.26 379.2 255.26 379.2 264.71 228.55 90.89 228.55 90.89 219.75" style="fill: rgb(204, 0, 0); transform-origin: 185.8550033569336px 299.4750061035156px;" id="el5g3vf4txumb" class="animable"></polygon><polygon points="330.86 157.14 342.61 198.97 331.42 201.05 326.82 184.98 280.82 184.98 284.39 178.31 325.29 178.31 320.69 157.14 330.86 157.14" style="fill: rgb(224, 224, 224); transform-origin: 311.7149963378906px 179.09500122070312px;" id="elbp1liptg08f" class="animable"></polygon><polygon points="445.79 197.04 284.39 217.13 280.82 206.95 445.79 184.98 445.79 197.04" style="fill: rgb(224, 224, 224); transform-origin: 363.3050079345703px 201.05500030517578px;" id="eldef4hc6f5g" class="animable"></polygon><polygon points="399.3 202.83 445.79 217.98 445.79 225.58 382.87 204.87 399.3 202.83" style="fill: rgb(224, 224, 224); transform-origin: 414.3300018310547px 214.2050018310547px;" id="elmsynx6gf17r" class="animable"></polygon><polygon points="356.31 207.88 431.64 231.75 415.49 235.69 339.73 209.88 356.31 207.88" style="fill: rgb(224, 224, 224); transform-origin: 385.6850128173828px 221.78500366210938px;" id="el26twqlmrdzui" class="animable"></polygon><polygon points="356.34 257.37 386.22 379.2 363.66 379.2 340.8 257.37 356.34 257.37" style="fill: rgb(224, 224, 224); transform-origin: 363.50999450683594px 318.2850036621094px;" id="elwsxpf4uqdyg" class="animable"></polygon><polygon points="445.79 347.21 280.82 317.62 280.82 342.7 445.79 370.9 445.79 347.21" style="fill: rgb(224, 224, 224); transform-origin: 363.3050079345703px 344.25999450683594px;" id="el8k5lfjs5bca" class="animable"></polygon><polygon points="201.53 296.07 176.04 378.42 154.09 378.42 182.41 297.75 201.53 296.07" style="fill: rgb(224, 224, 224); transform-origin: 177.80999755859375px 337.24501037597656px;" id="elofd2ali5q5l" class="animable"></polygon><path d="M257.85,393.27h2.63v5.05a8.56,8.56,0,0,1-5,1.59c-3.91,0-6.8-2.69-6.8-6.45s2.89-6.44,6.86-6.44a6.61,6.61,0,0,1,5.21,2.15l-1.85,1.71a4.23,4.23,0,0,0-3.22-1.41,4,4,0,1,0,0,8,4.6,4.6,0,0,0,2.25-.53Z" style="fill: rgb(255, 255, 255); transform-origin: 254.71500396728516px 393.46101093292236px;" id="el0ek6dsubm5o" class="animable"></path><path d="M274,391.75c0,2.78-2.08,4.51-5.41,4.51H266v3.43h-2.88V387.23h5.39C271.88,387.23,274,389,274,391.75Zm-2.91,0c0-1.37-.9-2.17-2.66-2.17H266v4.33h2.35C270.15,393.91,271.05,393.11,271.05,391.75Z" style="fill: rgb(255, 255, 255); transform-origin: 268.55999755859375px 393.4600067138672px;" id="elsuzy9cgjf5g" class="animable"></path><path d="M275.21,398.47l1-2.18a7.31,7.31,0,0,0,4.12,1.3c1.71,0,2.4-.57,2.4-1.33,0-2.33-7.25-.73-7.25-5.36,0-2.12,1.71-3.88,5.26-3.88a8.33,8.33,0,0,1,4.32,1.1l-.89,2.19a7,7,0,0,0-3.45-1c-1.71,0-2.37.64-2.37,1.43,0,2.29,7.25.71,7.25,5.28,0,2.09-1.73,3.87-5.29,3.87A8.94,8.94,0,0,1,275.21,398.47Z" style="fill: rgb(255, 255, 255); transform-origin: 280.4049835205078px 393.45594120025635px;" id="elpd5f6bxoxd9" class="animable"></path><polygon points="268.79 262.68 303.87 316.26 269 310.99 234.94 316.26 268.79 262.68" style="fill: rgb(69, 90, 100); transform-origin: 269.4049987792969px 289.4700012207031px;" id="elbgleb62yp58" class="animable"></polygon><g id="ellohxa3ah2dl"><g style="opacity: 0.30000000000000004; transform-origin: 269.4049987792969px 311.4650115966797px;" class="animable"><polygon points="234.94 316.26 268.83 306.67 303.87 316.26 268.83 311.02 234.94 316.26" id="elneztueckbjd" style="transform-origin: 269.4049987792969px 311.4650115966797px;" class="animable"></polygon></g></g><path d="M268.79,262.68c.15,0,.27,9.85.28,22s-.1,22-.24,22-.27-9.84-.28-22S268.65,262.68,268.79,262.68Z" style="fill: rgb(38, 50, 56); transform-origin: 268.8100048005581px 284.67999267578125px;" id="el1xf12i5241cj" class="animable"></path><path d="M294.89,198.35H250.21a15.05,15.05,0,0,1-15.05-15h0a15,15,0,0,1,15.05-15h44.68a15,15,0,0,1,15.05,15h0A15.05,15.05,0,0,1,294.89,198.35Z" style="fill: rgb(69, 90, 100); transform-origin: 272.55001068115234px 183.34997177124023px;" id="elyaq84mj53a" class="animable"></path><path d="M255.47,185.42V187H249v-1.28l3.29-3.1c.75-.72.89-1.16.89-1.58,0-.67-.46-1-1.37-1a2.07,2.07,0,0,0-1.76.85l-1.44-.93a4,4,0,0,1,3.39-1.58c1.9,0,3.16,1,3.16,2.52a3.4,3.4,0,0,1-1.42,2.69l-2,1.85Z" style="fill: rgb(255, 255, 255); transform-origin: 252.04000091552734px 182.68746042251587px;" id="el7zzgf2mhjsd" class="animable"></path><path d="M258.71,185.93a2.84,2.84,0,0,1-.33,1.22l-.69,1.75h-1.21L257,187a1.07,1.07,0,0,1-.66-1,1.18,1.18,0,0,1,2.35,0Z" style="fill: rgb(255, 255, 255); transform-origin: 257.5249648094177px 186.91423797607422px;" id="ela5umj7g7ms8" class="animable"></path><path d="M266,184.35c0,1.51-1.11,2.82-3.54,2.82a5.85,5.85,0,0,1-3.25-.91l.78-1.51a4.06,4.06,0,0,0,2.42.77c1,0,1.6-.42,1.6-1.11s-.44-1.11-2-1.11h-2.18l.44-4.79h5.2v1.58H262l-.13,1.62h.69C265,181.71,266,182.84,266,184.35Z" style="fill: rgb(255, 255, 255); transform-origin: 262.60499572753906px 182.8405818939209px;" id="elxw059wyekhq" class="animable"></path><path d="M268.94,185.26l-.57.53v.75h-.5V182.7h.5v2.46l1.5-1.36h.6l-1.16,1.13,1.27,1.61H270Z" style="fill: rgb(255, 255, 255); transform-origin: 269.22499084472656px 184.62000274658203px;" id="elbyuyh0vkjjk" class="animable"></path><path d="M275.58,185v1.58h-.5V185c0-.54-.25-.81-.7-.81a.8.8,0,0,0-.83.91v1.42h-.49V185c0-.54-.26-.81-.71-.81a.8.8,0,0,0-.83.91v1.42H271V183.8h.47v.4a1.12,1.12,0,0,1,.95-.43,1,1,0,0,1,.95.51,1.25,1.25,0,0,1,1.06-.51A1,1,0,0,1,275.58,185Z" style="fill: rgb(255, 255, 255); transform-origin: 273.3054280281067px 185.1667582988739px;" id="elsu55pt6n8oh" class="animable"></path><polygon points="289.23 174.71 280.82 180.66 289.23 185.72 289.23 174.71" style="fill: rgb(255, 255, 255); transform-origin: 285.02500915527344px 180.21500396728516px;" id="eltmr1bp6an7" class="animable"></polygon><path d="M299.34,189h-4v-4.51a2.3,2.3,0,0,0-2.3-2.3h-6.12v-4H293a6.31,6.31,0,0,1,6.3,6.3Z" style="fill: rgb(255, 255, 255); transform-origin: 293.1300048828125px 183.59500122070312px;" id="eldhew4se63uv" class="animable"></path><rect x="99.35" y="251.2" width="15.56" height="59.99" rx="7.78" style="fill: rgb(204, 0, 0); transform-origin: 107.13px 281.195px;" id="elfklujxbo4pb" class="animable"></rect><g id="elkti8ipnr8hf"><g style="opacity: 0.30000000000000004; transform-origin: 107.1300048828125px 259.47000885009766px;" class="animable"><path d="M113.92,259.47a6.79,6.79,0,1,1-6.79-6.79A6.79,6.79,0,0,1,113.92,259.47Z" style="fill: rgb(255, 255, 255); transform-origin: 107.1300048828125px 259.47000885009766px;" id="elbpweksy8p9" class="animable"></path></g></g><polygon points="103.82 262.91 107.13 256.03 110.44 262.88 107.08 260.89 103.82 262.91" style="fill: rgb(255, 255, 255); transform-origin: 107.13000106811523px 259.4700012207031px;" id="elpb9rrzzj32h" class="animable"></polygon><rect x="106.24" y="276.28" width="1.54" height="5.65" style="fill: rgb(255, 255, 255); transform-origin: 107.00999999999999px 279.10499999999996px;" id="elqyykl6vi0bs" class="animable"></rect><g id="elyjpu8odokp"><rect x="106.36" y="276.28" width="1.54" height="5.65" style="fill: rgb(255, 255, 255); transform-origin: 107.13px 279.10499999999996px; transform: rotate(-90deg);" class="animable"></rect></g><g id="elsmybzmum68l"><rect x="106.36" y="298.96" width="1.54" height="5.65" style="fill: rgb(255, 255, 255); transform-origin: 107.13px 301.78499999999997px; transform: rotate(-90deg);" class="animable"></rect></g><path d="M299.73,363.72h-61.8a17.47,17.47,0,0,1-17.47-17.47h0a17.47,17.47,0,0,1,17.47-17.47h61.8a17.47,17.47,0,0,1,17.47,17.47h0A17.47,17.47,0,0,1,299.73,363.72Z" style="fill: rgb(235, 235, 235); transform-origin: 268.8300094604492px 346.25px;" id="elx407y369aq" class="animable"></path><path d="M299.73,364.22h-61.8a18,18,0,1,1,0-35.94h61.8a18,18,0,0,1,0,35.94Zm-61.8-34.94a17,17,0,1,0,0,33.94h61.8a17,17,0,0,0,0-33.94Z" style="fill: rgb(38, 50, 56); transform-origin: 267.7914009094238px 346.2500114440918px;" id="el4y4812z19uf" class="animable"></path><circle cx="239.82" cy="346.25" r="10.71" style="fill: rgb(255, 255, 255); transform-origin: 239.82px 346.25px;" id="elho0r7as1j5" class="animable"></circle><path d="M239.82,357.46A11.21,11.21,0,1,1,251,346.25,11.22,11.22,0,0,1,239.82,357.46Zm0-21.42A10.21,10.21,0,1,0,250,346.25,10.22,10.22,0,0,0,239.82,336Z" style="fill: rgb(204, 0, 0); transform-origin: 239.78997993469238px 346.2500228881836px;" id="el37wvshtmah9" class="animable"></path><path d="M235.38,343.12v5.78h-1.33v-4.7h-1.16v-1.08Z" style="fill: rgb(38, 50, 56); transform-origin: 234.13500213623047px 346.00999450683594px;" id="el1jaxndiua4s" class="animable"></path><path d="M236.39,346c0-1.91,1.06-3,2.48-3s2.47,1.08,2.47,3-1,3-2.47,3S236.39,347.92,236.39,346Zm3.61,0c0-1.31-.46-1.86-1.13-1.86s-1.12.55-1.12,1.86.46,1.86,1.12,1.86S240,347.32,240,346Z" style="fill: rgb(38, 50, 56); transform-origin: 238.86499786376953px 346px;" id="elswsa1u155" class="animable"></path><path d="M242,346c0-1.91,1.05-3,2.47-3s2.48,1.08,2.48,3-1,3-2.48,3S242,347.92,242,346Zm3.61,0c0-1.31-.47-1.86-1.14-1.86s-1.12.55-1.12,1.86.46,1.86,1.12,1.86S245.61,347.32,245.61,346Z" style="fill: rgb(38, 50, 56); transform-origin: 244.4749984741211px 346px;" id="ela5molri7ylj" class="animable"></path><path d="M268.07,345.16c0,4.54-2.56,7-6.28,7a6.34,6.34,0,0,1-3.31-.78l.72-1.48a4.65,4.65,0,0,0,2.57.63c2.69,0,4.4-1.69,4.4-5V345a4.41,4.41,0,0,1-3.83,1.75c-2.64,0-4.54-1.58-4.54-4s2.05-4.2,4.69-4.2C266.06,338.53,268.07,340.92,268.07,345.16Zm-2.33-2.53c0-1.36-1.1-2.56-3.18-2.56a2.62,2.62,0,0,0-2.92,2.58c0,1.56,1.16,2.57,3,2.57S265.74,344.1,265.74,342.63Z" style="fill: rgb(38, 50, 56); transform-origin: 262.9350128173828px 345.3574848175049px;" id="elxv13zkdtumf" class="animable"></path><path d="M280.2,347.93c0,2.57-2.07,4.2-4.71,4.2-3.57,0-5.59-2.39-5.59-6.63,0-4.54,2.57-7,6.29-7a6.46,6.46,0,0,1,3.31.78l-.73,1.48a4.64,4.64,0,0,0-2.54-.63c-2.7,0-4.43,1.69-4.43,5a3.86,3.86,0,0,0,0,.47,4.43,4.43,0,0,1,3.82-1.74C278.28,343.91,280.2,345.48,280.2,347.93Zm-1.84.08c0-1.56-1.18-2.56-3-2.56s-3.06,1.12-3.06,2.58,1.1,2.56,3.15,2.56C277.14,350.59,278.36,349.59,278.36,348Z" style="fill: rgb(38, 50, 56); transform-origin: 275.0500183105469px 345.3130350112915px;" id="elws6dwa7m7l" class="animable"></path><path d="M285.91,349l-.73.68v1h-.63v-4.92h.63v3.16l1.92-1.75h.76l-1.47,1.45,1.62,2.06h-.78Z" style="fill: rgb(38, 50, 56); transform-origin: 286.2799987792969px 348.21998596191406px;" id="elhvq67mkwe36" class="animable"></path><path d="M294.41,348.66v2h-.64v-1.95c0-.69-.33-1-.9-1a1,1,0,0,0-1.06,1.17v1.81h-.63v-1.95c0-.69-.33-1-.91-1s-1,.41-1,1.17v1.81h-.64v-3.51h.61v.52a1.41,1.41,0,0,1,1.21-.56,1.31,1.31,0,0,1,1.22.65,1.61,1.61,0,0,1,1.35-.65A1.35,1.35,0,0,1,294.41,348.66Z" style="fill: rgb(38, 50, 56); transform-origin: 291.5236804485321px 348.9435636997223px;" id="elianewsjuzeq" class="animable"></path><path d="M297,345.1h.58l-2.19,6.24h-.57Z" style="fill: rgb(38, 50, 56); transform-origin: 296.1999816894531px 348.2200012207031px;" id="elpaznv3m6ifn" class="animable"></path><path d="M301.25,348.66v2h-.64v-1.95c0-.69-.34-1-.94-1a1,1,0,0,0-1.12,1.17v1.81h-.63v-4.92h.63v1.9a1.57,1.57,0,0,1,1.24-.53A1.36,1.36,0,0,1,301.25,348.66Z" style="fill: rgb(38, 50, 56); transform-origin: 299.58998692035675px 348.22999572753906px;" id="elhdkkewrn6wl" class="animable"></path><path d="M317.52,129.73c0,.14-40.34.26-90.09.26s-90.1-.12-90.1-.26,40.33-.26,90.1-.26S317.52,129.59,317.52,129.73Z" style="fill: rgb(255, 255, 255); transform-origin: 227.42498779296875px 129.72999572753906px;" id="elh9ryb1gb6t9" class="animable"></path><path d="M105.27,131.33c0,.14-5.08.31-11.35.38s-11.35,0-11.35-.14,5.08-.31,11.34-.38S105.26,131.18,105.27,131.33Z" style="fill: rgb(255, 255, 255); transform-origin: 93.91999816894531px 131.44917690753937px;" id="elha7x8gqbpm" class="animable"></path></g><g id="freepik--Car--inject-99" style="transform-origin: 510.2411346435547px 362.4264221191406px;" class="animable"><rect x="329.14" y="352.86" width="358.01" height="52.53" style="fill: rgb(204, 0, 0); transform-origin: 508.145px 379.125px;" id="ela5gv94z8ba6" class="animable"></rect><g id="elg91mc04xg9o"><g style="opacity: 0.5; transform-origin: 508.14501953125px 379.12498474121094px;" class="animable"><rect x="329.14" y="352.86" width="358.01" height="52.53" id="elh8haks7hg4s" style="transform-origin: 508.145px 379.125px;" class="animable"></rect></g></g><path d="M342.73,404.55a34.52,34.52,0,1,0,35-34A34.51,34.51,0,0,0,342.73,404.55Z" style="fill: rgb(38, 50, 56); transform-origin: 377.24615478515625px 405.0665588378906px;" id="elt634yk0rj09" class="animable"></path><path d="M342.73,404.46v.09a34.52,34.52,0,1,0,69,1v-.09Z" style="fill: rgb(38, 50, 56); transform-origin: 377.2145195007324px 422.54653549194336px;" id="elc9urgrha8mv" class="animable"></path><path d="M353,404.7a24.24,24.24,0,1,0,24.58-23.89A24.24,24.24,0,0,0,353,404.7Z" style="fill: rgb(250, 250, 250); transform-origin: 377.23750495910645px 405.04761505126953px;" id="el0cjnadi6hx04" class="animable"></path><path d="M377.59,380.81A24.24,24.24,0,0,0,353,404.7l48.47.69A24.24,24.24,0,0,0,377.59,380.81Z" style="fill: rgb(224, 224, 224); transform-origin: 377.2362365722656px 393.09868907928467px;" id="elrencx0xl5df" class="animable"></path><path d="M362.48,404.83a14.77,14.77,0,1,0,15-14.55A14.78,14.78,0,0,0,362.48,404.83Z" style="fill: rgb(38, 50, 56); transform-origin: 377.2483730316162px 405.04821395874023px;" id="elh2qh6flbmpo" class="animable"></path><g id="el2yb1x2wpnd"><circle cx="641.23" cy="405.04" r="34.52" style="fill: rgb(38, 50, 56); transform-origin: 641.23px 405.04px; transform: rotate(-5deg);" class="animable"></circle></g><path d="M606.72,404.46s0,.06,0,.09a34.52,34.52,0,0,0,69,1s0-.06,0-.09Z" style="fill: rgb(38, 50, 56); transform-origin: 641.2200012207031px 421.48375129699707px;" id="el7z3h13knj2j" class="animable"></path><path d="M617,404.7a24.24,24.24,0,1,0,24.59-23.89A24.24,24.24,0,0,0,617,404.7Z" style="fill: rgb(250, 250, 250); transform-origin: 641.2374897003174px 405.0474681854248px;" id="eln2l5dp91r4" class="animable"></path><path d="M641.58,380.81A24.25,24.25,0,0,0,617,404.7l48.47.69A24.23,24.23,0,0,0,641.58,380.81Z" style="fill: rgb(224, 224, 224); transform-origin: 641.2362937927246px 393.09885120391846px;" id="el7o6lwmo56hj" class="animable"></path><path d="M626.47,404.83a14.76,14.76,0,1,0,15-14.55A14.77,14.77,0,0,0,626.47,404.83Z" style="fill: rgb(38, 50, 56); transform-origin: 641.2284727096558px 405.03808879852295px;" id="eloa789e00h1" class="animable"></path><path d="M422.5,323.31s-50.84,3.75-69.68,8c-13.28,3-38.88,8.11-38.57,24.22l2,11.55s-9.5,4.34-9.5,15.41-2.32,28.24,19.85,28.93c3.65.11,10.59,0,10.59,0s-4.26-47.22,39.12-48.6c44.13-1.41,41.2,48.16,41.2,48.16H601.72s-7.56-48.29,39.95-48.36,40.27,48.68,40.27,48.68,17.48,1.51,25.61-13.18,6-25.14,6-25.14l-.27-9.28a6,6,0,0,0-5.78-5.83h0s3.17-23.38-1.7-27.42S674.26,302,674.26,302l1.27-.79a3,3,0,0,0-.62-5.37c-10.14-3.49-30.18-10.38-34.89-12a8.63,8.63,0,0,0-2.19-.46c-2.81-.22-10.77-.72-25.39-.88-17.8-.19-88.49,0-88.49,0s-24.32,2-37.87,8C471.83,296.68,422.5,323.31,422.5,323.31Z" style="fill: rgb(204, 0, 0); transform-origin: 510.24114990234375px 346.9422149658203px;" id="el7f6l8vj6ilt" class="animable"></path><g id="el4o25sxegkua"><g style="opacity: 0.4; transform-origin: 317.01684045791626px 388.83985567092896px;" class="animable"><path d="M319.66,381.19c-1.84-.38-4.67-.41-6.07.84a5.8,5.8,0,0,0-1.48,3.81,16.21,16.21,0,0,0,.13,5.73,7,7,0,0,0,3.22,4.56,4.5,4.5,0,0,0,5.31-.63c1.2-1.28,1.34-3.21,1.31-5a40.43,40.43,0,0,0-.31-7.05,3.56,3.56,0,0,0-.63-1.42,1.93,1.93,0,0,0-1.48-.88" id="elewegd820x7p" style="transform-origin: 317.01684045791626px 388.83985567092896px;" class="animable"></path></g></g><g id="el84e2l9t87zi"><g style="opacity: 0.6000000000000001; transform-origin: 327.11046028137207px 360.5424919128418px;" class="animable"><path d="M319,367.06c5.4,0,10.63-.3,16-.66a2.59,2.59,0,0,0,1.64-.49,2.68,2.68,0,0,0,.56-2c0-2.89-.12-6.18-2.31-8.06A8.74,8.74,0,0,0,330,354.2a32.11,32.11,0,0,0-13,1.31Z" style="fill: rgb(250, 250, 250); transform-origin: 327.11046028137207px 360.5424919128418px;" id="elv6ofk8lzhi" class="animable"></path></g></g><path d="M428.33,409.49s0-.16,0-.46-.05-.77-.09-1.36c-.06-1.2-.16-2.95-.28-5.21s-.28-5-.6-8.22a65.36,65.36,0,0,0-1.91-10.74,48.94,48.94,0,0,0-5.19-12.1,38.09,38.09,0,0,0-10.05-11.2c-8.71-6.19-20.47-9.69-32.77-9.84s-24.06,3.75-32.55,10.24a47.79,47.79,0,0,0-10.56,10.78A51.12,51.12,0,0,0,328.1,383a47.71,47.71,0,0,0-2.61,10.56,44.44,44.44,0,0,0-.31,8.22,39.75,39.75,0,0,0,.63,5.16c.1.58.18,1,.24,1.34s.07.45.07.45,0-.15-.1-.45-.16-.75-.28-1.32a39.58,39.58,0,0,1-.7-5.17,44.34,44.34,0,0,1,.27-8.25,47,47,0,0,1,2.57-10.63,51.07,51.07,0,0,1,6.18-11.71,48,48,0,0,1,10.61-10.87C353.2,353.8,365,349.87,377.4,350s24.19,3.68,33,9.93a38.37,38.37,0,0,1,10.1,11.31,49,49,0,0,1,5.18,12.18,63.58,63.58,0,0,1,1.86,10.78c.31,3.2.44,6,.55,8.24s.17,4,.22,5.21q0,.88.06,1.35C428.34,409.33,428.33,409.49,428.33,409.49Z" style="fill: rgb(255, 255, 255); transform-origin: 376.66441345214844px 379.74341583251953px;" id="elz9ntdr2f3pg" class="animable"></path><path d="M430.29,410.29s0-.13,0-.39,0-.64,0-1.14c0-1-.08-2.51-.14-4.46-.11-3.92-.28-9.64-.48-16.92s-.45-16.13-.72-26.27c-.07-2.53-.14-5.15-.22-7.84a28.38,28.38,0,0,1,.18-4.1l.3-2.08c.14-.68.28-1.38.42-2.08a43.29,43.29,0,0,1,7.6-16.12h0l0,0,31.89-20.09,8.62-5.42a66.7,66.7,0,0,1,9.11-5.09,94.12,94.12,0,0,1,9.9-4c1.7-.59,3.43-1.08,5.17-1.6s3.5-.94,5.29-1.3a120.7,120.7,0,0,1,20.56-2.59,194,194,0,0,1,19.9.06h.19l0,.19c-3,13.66-5.93,26.54-8.57,38.34v0a41.76,41.76,0,0,0-3.85,8.23,22.8,22.8,0,0,0-1.3,8.52c.22,2.84.3,5.61.37,8.3s.11,5.3.16,7.83c.14,10.13.18,19,.21,26.25s0,13,0,16.91c0,1.95,0,3.44,0,4.46,0,.5,0,.88,0,1.14s0,.39,0,.39,0-.13,0-.39,0-.64,0-1.14c0-1,0-2.51,0-4.46,0-3.91-.06-9.63-.1-16.91s-.11-16.12-.28-26.24c-.06-2.53-.11-5.15-.17-7.84s-.16-5.45-.38-8.28a22.67,22.67,0,0,1,1.3-8.63,42.33,42.33,0,0,1,3.86-8.3l0,.05L547.48,289l.15.2a193.18,193.18,0,0,0-19.86-.06,120.64,120.64,0,0,0-20.5,2.59c-1.79.36-3.53.86-5.28,1.3s-3.46,1-5.15,1.59a93.51,93.51,0,0,0-9.87,3.94,67.14,67.14,0,0,0-9.07,5.06L469.28,309l-31.92,20.07,0,0a40.87,40.87,0,0,0-4.7,7.79,41.69,41.69,0,0,0-2.87,8.2c-1.45,5.53-.72,11-.7,16,.25,10.14.47,19,.65,26.26s.3,13,.4,16.92c0,1.95.07,3.45.09,4.47,0,.5,0,.88,0,1.14Z" style="fill: rgb(38, 50, 56); transform-origin: 488.28924560546875px 349.43190002441406px;" id="elo8xkdaxkv4" class="animable"></path><path d="M547.43,290l.31,0,.88,0,3.43-.08,12.7-.25,42.84-.73h.08l.05.06,6,7.35,17.14,21,1.95,2.39a13.31,13.31,0,0,1,1.61,2.57,13.57,13.57,0,0,1,1.28,5.61,13.34,13.34,0,0,1-1,5.28l-1.95,4.55-5.93,13.7c-.7,1.61-1.24,2.86-1.62,3.72-.19.41-.33.74-.43,1s-.16.33-.16.33,0-.12.13-.34.22-.56.4-1c.36-.87.89-2.12,1.56-3.74l5.83-13.74c1.11-2.92,3.06-6,2.93-9.73a12.93,12.93,0,0,0-2.85-8l-2-2.39c-5.27-6.46-11.07-13.55-17.16-21l-6-7.35.14.06-42.84.62-12.71.15-3.43,0h-1.19Z" style="fill: rgb(38, 50, 56); transform-origin: 591.560962677002px 322.7200012207031px;" id="elzbcgs30939" class="animable"></path><path d="M525.81,346.93s.18,0,.51-.08a3.6,3.6,0,0,0,1.36-.54,3.49,3.49,0,0,0,1.38-1.8,3.8,3.8,0,0,0,.18-1.42,3.63,3.63,0,0,0-.4-1.53,3.43,3.43,0,0,0-3-1.81H511.54a3.39,3.39,0,0,0-3.35,3,3.76,3.76,0,0,0,.42,2.28,3.41,3.41,0,0,0,1.65,1.47,5.16,5.16,0,0,0,2.14.26h2.11l3.8,0,5.49.05,1.49,0a1.93,1.93,0,0,1,.52,0l-.52,0-1.49,0-5.49.05-3.8,0H512.4c-.37,0-.72,0-1.11,0a3.31,3.31,0,0,1-1.15-.26,3.68,3.68,0,0,1-1.81-1.59,4.06,4.06,0,0,1-.46-2.47,3.7,3.7,0,0,1,3.67-3.3h10l4.36,0a3.64,3.64,0,0,1,3.58,3.62,4.27,4.27,0,0,1-.21,1.49,3.58,3.58,0,0,1-1.49,1.84,3.45,3.45,0,0,1-1.42.5A2.05,2.05,0,0,1,525.81,346.93Z" style="fill: rgb(38, 50, 56); transform-origin: 518.659255027771px 343.08497619628906px;" id="elkl4bcabj6vd" class="animable"></path><path d="M621.27,346.93a5.08,5.08,0,0,1,.51-.08,3.67,3.67,0,0,0,1.36-.54,3.55,3.55,0,0,0,1.38-1.8,4,4,0,0,0,.17-1.42,3.49,3.49,0,0,0-.4-1.53,3.4,3.4,0,0,0-3-1.81H607a3.39,3.39,0,0,0-3.35,3,3.76,3.76,0,0,0,.41,2.28,3.46,3.46,0,0,0,1.65,1.47,5.18,5.18,0,0,0,2.15.26H610l3.79,0,5.49.05,1.5,0a1.93,1.93,0,0,1,.52,0l-.52,0-1.5,0-5.49.05-3.79,0h-2.11c-.37,0-.72,0-1.12,0a3.36,3.36,0,0,1-1.15-.26,3.72,3.72,0,0,1-1.81-1.59,4.13,4.13,0,0,1-.46-2.47,3.7,3.7,0,0,1,3.68-3.3h10l4.35,0a3.66,3.66,0,0,1,3.18,2,3.79,3.79,0,0,1,.41,1.64,4,4,0,0,1-.22,1.49,3.62,3.62,0,0,1-1.48,1.84,3.45,3.45,0,0,1-1.42.5A2.05,2.05,0,0,1,621.27,346.93Z" style="fill: rgb(38, 50, 56); transform-origin: 614.1456336975098px 343.08497643470764px;" id="elo1vfm47vxi" class="animable"></path><path d="M705,331.35h-19.1a7,7,0,0,0-6.23,3.77h0a7.07,7.07,0,0,0-.22,6.12l7.49,17,19.13-.19S710.11,336.5,705,331.35Z" style="fill: rgb(250, 250, 250); transform-origin: 693.2222661972046px 344.79498195648193px;" id="el7brmakhackg" class="animable"></path><path d="M439.7,328.94l98.56-1.81L602.4,326l21.15-12.21a3.29,3.29,0,0,0,1-4.83l-13.17-17.3a7.32,7.32,0,0,0-5.77-2.89l-71.74-.58s-27-1.57-48.3,10.34C463.15,311,439.7,328.94,439.7,328.94Z" style="fill: rgb(38, 50, 56); transform-origin: 532.4538726806641px 308.5308609008789px;" id="el8ehlyo9ywhv" class="animable"></path><path d="M484.87,289.92s4.94,2.26,1.73,4.34-53.15,33.57-53.15,33.57L422,322.63C442.3,311.31,462.84,300.31,484.87,289.92Z" style="fill: rgb(69, 90, 100); transform-origin: 454.8421211242676px 308.87501525878906px;" id="elpmhwk3j2x4" class="animable"></path><path d="M435.06,328.62l-.3.07-.91.2-3.5.73c-3.05.6-7.46,1.45-12.94,2.39-10.94,1.89-26.14,4.08-43,5.54-4.23.37-8.35.67-12.34.93s-7.83.51-11.49.84a99,99,0,0,0-19.17,3.29,54.1,54.1,0,0,0-12.08,5c-1.38.72-2.35,1.43-3.05,1.86l-.78.5-.28.16a2.77,2.77,0,0,1,.26-.19l.76-.53c.69-.44,1.66-1.17,3-1.91a52.52,52.52,0,0,1,12.09-5.16,98,98,0,0,1,19.2-3.37c3.66-.34,7.51-.59,11.5-.85s8.11-.57,12.33-.94c16.88-1.46,32.07-3.62,43-5.44,5.48-.91,9.9-1.72,12.95-2.29l3.51-.66.92-.17Z" style="fill: rgb(38, 50, 56); transform-origin: 375.1400146484375px 339.37501525878906px;" id="elobxixfj2eyl" class="animable"></path><path d="M712.61,372.75c0,.09-6.57.17-14.67.17s-14.67-.08-14.67-.17,6.56-.17,14.67-.17S712.61,372.66,712.61,372.75Z" style="fill: rgb(38, 50, 56); transform-origin: 697.9400024414062px 372.75px;" id="elesk4dfhpkmw" class="animable"></path><path d="M592.44,389.51c0,.09-37.08.17-82.81.17s-82.82-.08-82.82-.17,37.07-.17,82.82-.17S592.44,389.42,592.44,389.51Z" style="fill: rgb(38, 50, 56); transform-origin: 509.625px 389.510009765625px;" id="el7798vcwy2am" class="animable"></path><path d="M332.82,373.3c0,.1-5.25.17-11.71.17s-11.71-.07-11.71-.17,5.24-.16,11.71-.16S332.82,373.21,332.82,373.3Z" style="fill: rgb(38, 50, 56); transform-origin: 321.1100158691406px 373.30499267578125px;" id="eldu4ilzud0ot" class="animable"></path><path d="M673.73,301.3s-4.4,4.93-2.67,8.54,19.61,16.27,19.61,16.27l13,2.44Z" style="fill: rgb(69, 90, 100); transform-origin: 687.1634788513184px 314.92498779296875px;" id="elpesl950rc3" class="animable"></path><polygon points="550.35 292.48 547.43 323.99 599.65 322.5 620.7 310.27 607.07 292.48 550.35 292.48" style="fill: rgb(69, 90, 100); transform-origin: 584.0650024414062px 308.23500061035156px;" id="els3emxr96u1i" class="animable"></polygon><path d="M452.07,325.61s31.5-22.75,43.93-27.28c12-4.36,18.25-5.45,29.52-5.77,10.76-.31,17.33,0,17.33,0l-8.33,32Z" style="fill: rgb(69, 90, 100); transform-origin: 497.46002197265625px 309.01609230041504px;" id="elfvh6b2ylyjq" class="animable"></path><path d="M447.46,325.71h0a5.53,5.53,0,0,1,2.82-4.81l7.23-4.07a13.8,13.8,0,0,1,6.76-1.76h0a13.86,13.86,0,0,1,4.3.68,7.84,7.84,0,0,1,5.27,7.2h0a8,8,0,0,1-8,8.28H453A5.52,5.52,0,0,1,447.46,325.71Z" style="fill: rgb(204, 0, 0); transform-origin: 460.65241718292236px 323.1500015258789px;" id="el91ivfpxrx1" class="animable"></path><path d="M447.46,325.71s0,.25.08.7a5.7,5.7,0,0,0,.64,1.89,5.53,5.53,0,0,0,2.22,2.18,5.42,5.42,0,0,0,1.86.59,20.09,20.09,0,0,0,2.22,0l11,0a8.41,8.41,0,0,0,3.08-.51,7.87,7.87,0,0,0,2.72-1.73,8,8,0,0,0,1.85-2.8,8.17,8.17,0,0,0,.48-3.41,7.84,7.84,0,0,0-3.26-5.78,8.3,8.3,0,0,0-3-1.26,13.49,13.49,0,0,0-3.12-.37,13.89,13.89,0,0,0-5.67,1.21c-.83.38-1.59.85-2.35,1.25l-2.15,1.2-3.71,2.06a5.53,5.53,0,0,0-2.22,2.18,5.7,5.7,0,0,0-.64,1.89c-.07.46-.06.7-.08.7a3.8,3.8,0,0,1,0-.71,5.29,5.29,0,0,1,.6-1.94,5.53,5.53,0,0,1,2.24-2.29l3.68-2.09,2.15-1.22c.75-.41,1.5-.89,2.36-1.28a13.84,13.84,0,0,1,9-.9,8.56,8.56,0,0,1,3.11,1.3,8.11,8.11,0,0,1,3.4,6,8.38,8.38,0,0,1-.5,3.56,8.21,8.21,0,0,1-4.77,4.71,8.65,8.65,0,0,1-3.19.52l-11,0a18.41,18.41,0,0,1-2.25-.07,5.54,5.54,0,0,1-4.17-2.92,5.38,5.38,0,0,1-.58-1.94A4.76,4.76,0,0,1,447.46,325.71Z" style="fill: rgb(38, 50, 56); transform-origin: 460.6839380264282px 323.13185024261475px;" id="elhrt0z101jf9" class="animable"></path><path d="M690.16,409.78s0-.15,0-.45.05-.74.09-1.31.1-1.29.14-2.13.06-1.81.1-2.91,0-2.31,0-3.64-.09-2.78-.27-4.33a56.24,56.24,0,0,0-1.87-10.38,45.74,45.74,0,0,0-2.06-5.78,37.7,37.7,0,0,0-3.11-5.86,40,40,0,0,0-10.09-10.53,47.35,47.35,0,0,0-14.47-7.13,60.66,60.66,0,0,0-17.2-2.3,56.74,56.74,0,0,0-17.17,2.5,47.89,47.89,0,0,0-7.64,3.16A44,44,0,0,0,610,363a55.69,55.69,0,0,0-10.22,10.48,41.36,41.36,0,0,0-3.4,5.7,58.42,58.42,0,0,0-2.35,5.67A67.58,67.58,0,0,0,590.29,403c-.1,2.19-.09,3.89,0,5,0,.57.06,1,.08,1.31s0,.45,0,.45,0-.15-.05-.44-.06-.75-.1-1.31a50.18,50.18,0,0,1,0-5.06,66.52,66.52,0,0,1,3.63-18.17,57.84,57.84,0,0,1,2.34-5.71,40.93,40.93,0,0,1,3.41-5.75,55,55,0,0,1,10.25-10.56,44.91,44.91,0,0,1,6.67-4.38,48.9,48.9,0,0,1,7.69-3.18,56.47,56.47,0,0,1,17.27-2.52,60.4,60.4,0,0,1,17.3,2.31,47.88,47.88,0,0,1,14.56,7.2,43.93,43.93,0,0,1,5.7,5,34.06,34.06,0,0,1,4.43,5.62,37.82,37.82,0,0,1,3.12,5.91,45.59,45.59,0,0,1,2.05,5.82A55.52,55.52,0,0,1,690.4,395c.18,1.55.17,3,.25,4.34s0,2.56,0,3.65-.09,2.07-.13,2.92-.13,1.55-.18,2.13-.09,1-.12,1.31S690.16,409.78,690.16,409.78Z" style="fill: rgb(255, 255, 255); transform-origin: 640.4208831787109px 381.2277297973633px;" id="elzoz1phvj3gn" class="animable"></path><path d="M533.14,328.94l-.14,0-.44,0-1.69,0-6.18.11c-5.23.09-12.45.29-20.42.5s-15.2.38-20.43.41c-2.61,0-4.73,0-6.19,0L476,330h-.44l-.15,0,.15,0,.44,0,1.68,0,6.19-.12c5.23-.09,12.44-.29,20.42-.5s15.19-.37,20.42-.41c2.62,0,4.73,0,6.19,0l1.69,0,.44,0Z" style="fill: rgb(255, 255, 255); transform-origin: 504.27500915527344px 329.4700012207031px;" id="elju2p4xp8crd" class="animable"></path><path d="M524.59,338.65a100,100,0,0,1-11.31,0,94.14,94.14,0,0,1,11.31,0Z" style="fill: rgb(255, 255, 255); transform-origin: 518.9350280761719px 338.64496994018555px;" id="el4romsydns2u" class="animable"></path><path d="M526.66,304.11c0,.09-7,3-15.67,6.53s-15.77,6.3-15.8,6.21,7-3,15.67-6.52S526.63,304,526.66,304.11Z" style="fill: rgb(255, 255, 255); transform-origin: 510.92492866516113px 310.4794945716858px;" id="ellq4eu9b5wkn" class="animable"></path><path d="M512.44,306.32c0,.08-6.64,3-14.92,6.57s-15,6.35-15.06,6.27,6.65-3,14.93-6.58S512.41,306.23,512.44,306.32Z" style="fill: rgb(255, 255, 255); transform-origin: 497.4497995376587px 312.73977756500244px;" id="el894xfhrgx6i" class="animable"></path><path d="M602.63,302.89c0,.09-7,3-15.68,6.53s-15.76,6.3-15.8,6.21,7-3,15.68-6.52S602.59,302.81,602.63,302.89Z" style="fill: rgb(255, 255, 255); transform-origin: 586.8899164199829px 309.26023960113525px;" id="elmw3xboh75es" class="animable"></path><path d="M588.41,305.1c0,.08-6.65,3-14.93,6.57s-15,6.35-15.05,6.27,6.64-3,14.92-6.58S588.37,305,588.41,305.1Z" style="fill: rgb(255, 255, 255); transform-origin: 573.4198169708252px 311.5195298194885px;" id="el67kpibwh36b" class="animable"></path><path d="M604,328.94c0,.09-14,.25-31.17.35s-31.18.11-31.18,0,14-.25,31.18-.36S604,328.84,604,328.94Z" style="fill: rgb(255, 255, 255); transform-origin: 572.8250122070312px 329.1123313009739px;" id="el1azcwx3z4kq" class="animable"></path><path d="M619.45,338.11c0,.09-3.91.2-8.74.25s-8.74,0-8.74-.09,3.91-.21,8.74-.25S619.45,338,619.45,338.11Z" style="fill: rgb(255, 255, 255); transform-origin: 610.7100219726562px 338.1903832703829px;" id="elcdkr8muogat" class="animable"></path><path d="M352.21,333.34a2.41,2.41,0,0,1-.38.07l-1.09.14c-.48.06-1.06.13-1.73.24s-1.44.2-2.28.37c-1.68.29-3.67.74-5.85,1.32s-4.55,1.36-7,2.3a72.86,72.86,0,0,0-6.69,3.06c-2,1.06-3.76,2.08-5.19,3-.73.45-1.36.9-1.92,1.28s-1.05.72-1.43,1l-.9.64a1.55,1.55,0,0,1-.33.2s.09-.09.29-.25l.86-.69c.37-.3.84-.66,1.4-1s1.18-.86,1.9-1.32c1.42-1,3.18-2,5.18-3.1a72,72,0,0,1,6.71-3.09,67.83,67.83,0,0,1,7-2.29c2.19-.57,4.2-1,5.89-1.25.85-.16,1.62-.24,2.3-.33s1.26-.14,1.74-.18l1.1-.08C352.08,333.33,352.21,333.32,352.21,333.34Z" style="fill: rgb(255, 255, 255); transform-origin: 334.8149871826172px 340.14519214630127px;" id="el073o7p9dqyur" class="animable"></path><path d="M467.44,318.11s-.19-.25-.62-.6a4.25,4.25,0,0,0-2.13-.86,9.41,9.41,0,0,0-3.44.37,26.47,26.47,0,0,0-10.67,5.49c-1.54,1.29-2.35,2.24-2.4,2.2a4.85,4.85,0,0,1,.55-.69c.38-.42.94-1,1.69-1.69a25,25,0,0,1,10.76-5.61,9.3,9.3,0,0,1,3.54-.31,4.3,4.3,0,0,1,2.19,1,3.13,3.13,0,0,1,.43.5C467.42,318,467.45,318.11,467.44,318.11Z" style="fill: rgb(255, 255, 255); transform-origin: 457.81092739105225px 320.5350513458252px;" id="elt4ajts0e4tc" class="animable"></path><path d="M675.19,301.07a10.27,10.27,0,0,1-2.75.28,17,17,0,0,1-3.22-.4,28.44,28.44,0,0,1-4.1-1.27c-1.49-.56-3.08-1.27-4.8-2l-2.68-1.08c-.92-.37-1.89-.69-2.88-1.05A112.07,112.07,0,0,0,641.61,292,150.35,150.35,0,0,0,617,288.91c-1.58-.09-3-.09-4.28-.12h-3.23l-2,0h-.54l-.18,0,.18,0,.53,0,2-.1,3.23-.06c1.27,0,2.7,0,4.29.07a143.38,143.38,0,0,1,24.64,3,108.64,108.64,0,0,1,13.18,3.62c1,.36,2,.69,2.89,1.06l2.68,1.1c1.72.75,3.3,1.47,4.77,2a29.43,29.43,0,0,0,4.06,1.31,17.31,17.31,0,0,0,3.19.45,13.94,13.94,0,0,0,2-.08l.53-.06Z" style="fill: rgb(38, 50, 56); transform-origin: 640.9800109863281px 294.9928922653198px;" id="elm8jw1j5cjkm" class="animable"></path><path d="M342.68,405a1.33,1.33,0,0,1,0,.28c0,.22,0,.49.07.82s0,.82.09,1.34a11.87,11.87,0,0,0,.19,1.81,34.74,34.74,0,0,0,3.39,11,36.48,36.48,0,0,0,4.35,6.68l1.48,1.61c.25.27.49.56.76.82l.85.76c.57.51,1.12,1.06,1.74,1.54l1.91,1.43a35.08,35.08,0,0,0,9,4.5,34.18,34.18,0,0,0,21.35,0,34.76,34.76,0,0,0,9-4.5l1.92-1.43c.61-.48,1.16-1,1.74-1.54l.84-.76c.27-.26.51-.55.77-.82l1.47-1.61A36,36,0,0,0,408,420.3a34.88,34.88,0,0,0,3.4-11,13.29,13.29,0,0,0,.19-1.81c0-.52.06-1,.09-1.34l.07-.82a.82.82,0,0,1,0-.28,1.29,1.29,0,0,1,0,.29l0,.82c0,.37,0,.82,0,1.34a12.56,12.56,0,0,1-.14,1.82,33.92,33.92,0,0,1-3.27,11.15,36.34,36.34,0,0,1-4.34,6.79l-1.49,1.65c-.25.27-.5.56-.77.83l-.85.78c-.58.51-1.13,1.07-1.76,1.57l-1.93,1.45a35.45,35.45,0,0,1-9.14,4.6,34.6,34.6,0,0,1-21.67,0,35.39,35.39,0,0,1-9.13-4.6l-1.94-1.45c-.62-.5-1.18-1.06-1.76-1.57l-.85-.78c-.27-.27-.51-.56-.77-.83l-1.48-1.65a35.52,35.52,0,0,1-4.34-6.79,33.68,33.68,0,0,1-3.27-11.15,11.39,11.39,0,0,1-.15-1.82c0-.52,0-1,0-1.34s0-.61,0-.82A.81.81,0,0,1,342.68,405Z" style="fill: rgb(69, 90, 100); transform-origin: 377.21435546875px 422.44014739990234px;" id="eldc13eut2jzn" class="animable"></path></g><defs>     <filter id="active" height="200%">         <feMorphology in="SourceAlpha" result="DILATED" operator="dilate" radius="2"></feMorphology>                <feFlood flood-color="#32DFEC" flood-opacity="1" result="PINK"></feFlood>        <feComposite in="PINK" in2="DILATED" operator="in" result="OUTLINE"></feComposite>        <feMerge>            <feMergeNode in="OUTLINE"></feMergeNode>            <feMergeNode in="SourceGraphic"></feMergeNode>        </feMerge>    </filter>    <filter id="hover" height="200%">        <feMorphology in="SourceAlpha" result="DILATED" operator="dilate" radius="2"></feMorphology>                <feFlood flood-color="#ff0000" flood-opacity="0.5" result="PINK"></feFlood>        <feComposite in="PINK" in2="DILATED" operator="in" result="OUTLINE"></feComposite>        <feMerge>            <feMergeNode in="OUTLINE"></feMergeNode>            <feMergeNode in="SourceGraphic"></feMergeNode>        </feMerge>            <feColorMatrix type="matrix" values="0   0   0   0   0                0   1   0   0   0                0   0   0   0   0                0   0   0   1   0 "></feColorMatrix>    </filter></defs></svg>